REM DIRINDEX 1\6,1\2\7,1\2\8,1\2\9,1\3\10,1\3\11,1\4\12,1\4\13,1\4\14,1\5\15,1\5\16,1\5\17
REM DIRNAME folder01,folder02,folder03,folder04,folder05,folder06,folder07,folder08,folder09,folder10,folder11,folder12,folder13,folder14,folder15,folder16,folder17
TITLE ""
FILE "3Q_t_0675-0690.mp3" MP3
  TRACK 01 AUDIO
    TITLE "10:cjc041_2960"
    INDEX 01 00:00:00
  TRACK 02 AUDIO
    TITLE "0:"
    INDEX 01 00:01:09
  TRACK 03 AUDIO
    TITLE "11:cjc041_2961"
    INDEX 01 00:01:64
  TRACK 04 AUDIO
    TITLE "0:"
    INDEX 01 00:02:59
  TRACK 05 AUDIO
    TITLE "10:cjc041_2962"
    INDEX 01 00:03:41
  TRACK 06 AUDIO
    TITLE "0:"
    INDEX 01 00:04:52
  TRACK 07 AUDIO
    TITLE "11:cjc041_2963"
    INDEX 01 00:05:36
  TRACK 08 AUDIO
    TITLE "0:"
    INDEX 01 00:06:47
  TRACK 09 AUDIO
    TITLE "10:cjc041_2964"
    INDEX 01 00:07:29
  TRACK 10 AUDIO
    TITLE "0:"
    INDEX 01 00:08:36
  TRACK 11 AUDIO
    TITLE "11:cjc041_2965"
    INDEX 01 00:09:20
  TRACK 12 AUDIO
    TITLE "0:"
    INDEX 01 00:11:17
  TRACK 13 AUDIO
    TITLE "10:cjc041_2966"
    INDEX 01 00:11:66
  TRACK 14 AUDIO
    TITLE "0:"
    INDEX 01 00:13:02
  TRACK 15 AUDIO
    TITLE "11:cjc041_2967"
    INDEX 01 00:13:49
  TRACK 16 AUDIO
    TITLE "0:"
    INDEX 01 00:14:51
  TRACK 17 AUDIO
    TITLE "10:cjc041_2968"
    INDEX 01 00:15:25
  TRACK 18 AUDIO
    TITLE "0:"
    INDEX 01 00:16:44
  TRACK 19 AUDIO
    TITLE "11:cjc041_2969"
    INDEX 01 00:17:18
  TRACK 20 AUDIO
    TITLE "0:"
    INDEX 01 00:19:28
  TRACK 21 AUDIO
    TITLE "10:cjc041_2970"
    INDEX 01 00:19:71
  TRACK 22 AUDIO
    TITLE "0:"
    INDEX 01 00:21:02
  TRACK 23 AUDIO
    TITLE "11:cjc041_2971"
    INDEX 01 00:21:60
  TRACK 24 AUDIO
    TITLE "0:"
    INDEX 01 00:24:53
  TRACK 25 AUDIO
    TITLE "10:cjc041_2972"
    INDEX 01 00:25:33
  TRACK 26 AUDIO
    TITLE "0:"
    INDEX 01 00:26:54
  TRACK 27 AUDIO
    TITLE "11:cjc041_2973"
    INDEX 01 00:27:34
  TRACK 28 AUDIO
    TITLE "0:"
    INDEX 01 00:28:49
  TRACK 29 AUDIO
    TITLE "10:cjc041_2974"
    INDEX 01 00:29:29
  TRACK 30 AUDIO
    TITLE "0:"
    INDEX 01 00:30:57
  TRACK 31 AUDIO
    TITLE "11:cjc041_2975"
    INDEX 01 00:31:33
  TRACK 32 AUDIO
    TITLE "0:"
    INDEX 01 00:33:07
  TRACK 33 AUDIO
    TITLE "10:cjc041_2976"
    INDEX 01 00:33:56
  TRACK 34 AUDIO
    TITLE "0:"
    INDEX 01 00:35:08
  TRACK 35 AUDIO
    TITLE "11:cjc041_2977"
    INDEX 01 00:35:68
  TRACK 36 AUDIO
    TITLE "0:"
    INDEX 01 00:36:70
  TRACK 37 AUDIO
    TITLE "10:cjc041_2978"
    INDEX 01 00:37:46
  TRACK 38 AUDIO
    TITLE "0:"
    INDEX 01 00:38:59
  TRACK 39 AUDIO
    TITLE "11:cjc041_2979"
    INDEX 01 00:39:37
  TRACK 40 AUDIO
    TITLE "0:"
    INDEX 01 00:41:45
  TRACK 41 AUDIO
    TITLE "10:cjc041_2980"
    INDEX 01 00:42:21
  TRACK 42 AUDIO
    TITLE "0:"
    INDEX 01 00:43:44
  TRACK 43 AUDIO
    TITLE "11:cjc041_2981"
    INDEX 01 00:44:18
  TRACK 44 AUDIO
    TITLE "0:"
    INDEX 01 00:46:31
  TRACK 45 AUDIO
    TITLE "10:cjc041_2982"
    INDEX 01 00:47:09
  TRACK 46 AUDIO
    TITLE "0:"
    INDEX 01 00:48:18
  TRACK 47 AUDIO
    TITLE "11:cjc041_2983"
    INDEX 01 00:48:73
  TRACK 48 AUDIO
    TITLE "0:"
    INDEX 01 00:49:59
  TRACK 49 AUDIO
    TITLE "10:cjc041_2984"
    INDEX 01 00:50:42
  TRACK 50 AUDIO
    TITLE "0:"
    INDEX 01 00:51:71
  TRACK 51 AUDIO
    TITLE "11:cjc041_2985"
    INDEX 01 00:52:45
  TRACK 52 AUDIO
    TITLE "0:"
    INDEX 01 00:53:45
  TRACK 53 AUDIO
    TITLE "10:cjc041_2986"
    INDEX 01 00:54:23
  TRACK 54 AUDIO
    TITLE "0:"
    INDEX 01 00:55:36
  TRACK 55 AUDIO
    TITLE "11:cjc041_2987"
    INDEX 01 00:56:18
  TRACK 56 AUDIO
    TITLE "0:"
    INDEX 01 00:57:35
  TRACK 57 AUDIO
    TITLE "10:cjc041_2988"
    INDEX 01 00:58:17
  TRACK 58 AUDIO
    TITLE "0:"
    INDEX 01 00:59:69
  TRACK 59 AUDIO
    TITLE "11:cjc041_2989"
    INDEX 01 01:00:39
  TRACK 60 AUDIO
    TITLE "0:"
    INDEX 01 01:01:58
  TRACK 61 AUDIO
    TITLE "10:cjc041_2990"
    INDEX 01 01:02:34
  TRACK 62 AUDIO
    TITLE "0:"
    INDEX 01 01:03:63
  TRACK 63 AUDIO
    TITLE "11:cjc041_2991"
    INDEX 01 01:04:33
  TRACK 64 AUDIO
    TITLE "0:"
    INDEX 01 01:05:40
